<svg
            width="34"
            height="34"
            viewBox="0 0 34 34"
            fill="none"
            xmlns="http://www.w3.org/2000/svg"
          >
            <path
              d="M17 9.5C15.5166 9.5 14.0666 9.93987 12.8332 10.764C11.5999 11.5881 10.6386 12.7594 10.0709 14.1299C9.50325 15.5003 9.35472 17.0083 9.64411 18.4632C9.9335 19.918 10.6478 21.2544 11.6967 22.3033C12.7456 23.3522 14.082 24.0665 15.5368 24.3559C16.9917 24.6453 18.4997 24.4968 19.8701 23.9291C21.2406 23.3614 22.4119 22.4001 23.236 21.1668C24.0601 19.9334 24.5 18.4834 24.5 17C24.4979 15.0115 23.7071 13.1051 22.301 11.699C20.8949 10.2929 18.9885 9.50207 17 9.5ZM17 22C16.0111 22 15.0444 21.7068 14.2221 21.1573C13.3999 20.6079 12.759 19.827 12.3806 18.9134C12.0022 17.9998 11.9031 16.9945 12.0961 16.0245C12.289 15.0546 12.7652 14.1637 13.4645 13.4645C14.1637 12.7652 15.0546 12.289 16.0245 12.0961C16.9945 11.9031 17.9998 12.0022 18.9134 12.3806C19.827 12.759 20.6079 13.3999 21.1573 14.2221C21.7068 15.0444 22 16.0111 22 17C22 18.3261 21.4732 19.5979 20.5355 20.5355C19.5979 21.4732 18.3261 22 17 22ZM24.5 0.75H9.5C7.18012 0.752482 4.95596 1.67515 3.31556 3.31556C1.67515 4.95596 0.752482 7.18012 0.75 9.5V24.5C0.752482 26.8199 1.67515 29.044 3.31556 30.6844C4.95596 32.3249 7.18012 33.2475 9.5 33.25H24.5C26.8199 33.2475 29.044 32.3249 30.6844 30.6844C32.3249 29.044 33.2475 26.8199 33.25 24.5V9.5C33.2475 7.18012 32.3249 4.95596 30.6844 3.31556C29.044 1.67515 26.8199 0.752482 24.5 0.75ZM30.75 24.5C30.75 26.1576 30.0915 27.7473 28.9194 28.9194C27.7473 30.0915 26.1576 30.75 24.5 30.75H9.5C7.8424 30.75 6.25269 30.0915 5.08058 28.9194C3.90848 27.7473 3.25 26.1576 3.25 24.5V9.5C3.25 7.8424 3.90848 6.25269 5.08058 5.08058C6.25269 3.90848 7.8424 3.25 9.5 3.25H24.5C26.1576 3.25 27.7473 3.90848 28.9194 5.08058C30.0915 6.25269 30.75 7.8424 30.75 9.5V24.5ZM27 8.875C27 9.24584 26.89 9.60835 26.684 9.91669C26.478 10.225 26.1851 10.4654 25.8425 10.6073C25.4999 10.7492 25.1229 10.7863 24.7592 10.714C24.3955 10.6416 24.0614 10.463 23.7992 10.2008C23.537 9.9386 23.3584 9.60451 23.286 9.2408C23.2137 8.87708 23.2508 8.50008 23.3927 8.15747C23.5346 7.81486 23.775 7.52202 24.0833 7.31599C24.3916 7.10997 24.7542 7 25.125 7C25.6223 7 26.0992 7.19754 26.4508 7.54917C26.8025 7.90081 27 8.37772 27 8.875Z"
              fill="white"
            />
          </svg>


